<?xml version="1.0" encoding="iso-8859-1"?>
<!-- Generator: Adobe Illustrator 19.0.0, SVG Export Plug-In . SVG Version: 6.00 Build 0)  -->
<svg xmlns="http://www.w3.org/2000/svg" xmlns:xlink="http://www.w3.org/1999/xlink" version="1.1" id="Layer_1" x="0px" y="0px" viewBox="0 0 512 512" style="enable-background:new 0 0 512 512;" xml:space="preserve" width="512" height="512">
<path d="M355.759,324.044L356,304.057l-0.258,19.987c-0.814-0.011-1.633-0.019-2.445-0.014l-138.376,0.053  c-8.83,0-16.008,7.178-16.008,16c0,5.297,2.621,10.245,7.011,13.236c5.317,3.623,9.817,5.479,11.537,5.845  c7.757,1.135,96.747,10.648,155.096,16.811l-4.201,39.779c-45.453-4.801-151.837-16.089-158.002-17.224  c-10.861-1.997-21.549-8.474-26.954-12.156c-5.149-3.509-9.582-7.804-13.224-12.646l-0.184,0.188l-95.982-94.194  c-3.813-3.743-8.864-5.809-14.197-5.726c-5.341,0.05-10.343,2.178-14.085,5.991c-3.743,3.813-5.776,8.855-5.726,14.196  c0.05,5.343,2.178,10.345,5.991,14.087l148.436,145.67c11.864,11.644,27.552,18.056,44.175,18.056H512v40H238.602  c-27.167,0-52.805-10.479-72.192-29.508L17.975,336.819C6.536,325.594,0.154,310.586,0.003,294.56  c-0.15-16.026,5.949-31.151,17.174-42.59c11.224-11.439,26.232-17.822,42.259-17.973c16.028-0.105,31.151,5.949,42.59,17.176  l63.577,62.392c9.469-17.538,28.02-29.483,49.31-29.483l138.354-0.053c0.982-0.001,1.978,0.005,2.974,0.017v-0.001  c48.742,0.588,95.458,15.894,135.1,44.261L512,343.09v49.187l-43.937-31.44C435.111,337.255,396.277,324.533,355.759,324.044z   M260.807,48.495c7.175-6.423,16.494-9.361,26.25-8.282c15.039,1.668,27.143,13.688,28.78,28.58  c1.149,10.447-3.872,20.441-16.789,33.418c-3.161,3.175-6.085,5.964-8.914,8.662c-14.557,13.882-27.128,25.871-27.128,52.118v1.004  h40v-1.004c0-8.612,1.665-10.708,14.734-23.171c2.874-2.74,6.13-5.846,9.658-9.39c13.708-13.771,31.544-35.596,28.2-66.008  c-3.666-33.347-30.636-60.248-64.129-63.964c-20.9-2.315-41.802,4.327-57.339,18.235C218.795,32.418,210,52.057,210,72.575h40  C250,63.285,253.838,54.733,260.807,48.495z M263,233.995h40v-40h-40V233.995z"/>















</svg>
